<?xml version="1.0" encoding="utf-8"?>
<!-- Generator: Adobe Illustrator 27.5.0, SVG Export Plug-In . SVG Version: 6.00 Build 0)  -->
<svg version="1.1" id="Layer_1" xmlns="http://www.w3.org/2000/svg" xmlns:xlink="http://www.w3.org/1999/xlink" x="0px" y="0px"
	 viewBox="0 0 2000 2000" style="enable-background:new 0 0 2000 2000;" xml:space="preserve">
<polygon style="fill:#0D1282;" points="1046.87,641.498 950.192,760.999 388.862,760.999 204.802,880.5 204.802,1000 
	246.717,1028.226 246.717,1087.59 401.159,1190.706 574.601,1190.706 602.401,1239.001 946.601,1239.001 1046.87,1358.501 
	1198.799,1358.501 1236.16,1292.901 1645.515,1292.901 1682.863,1358.479 1795.198,1239.001 1795.198,760.999 1682.843,641.498 "/>
<polygon style="fill:#4CC9F1;" points="891.589,744.5 941.323,744.5 1021.548,641.498 971.814,641.498 "/>
<polygon style="fill:#4CC9F1;" points="951.487,641.498 901.753,641.498 821.528,744.5 871.262,744.5 "/>
<polygon style="fill:#4CC9F1;" points="881.425,641.498 831.691,641.498 751.466,744.5 801.2,744.5 "/>
<polygon style="fill:#4CC9F1;" points="811.364,641.498 761.63,641.498 681.405,744.5 731.139,744.5 "/>
<polygon style="fill:#4CC9F1;" points="741.303,641.498 691.568,641.498 611.343,744.5 661.078,744.5 "/>
<polygon style="fill:#4CC9F1;" points="621.507,641.498 541.282,744.5 591.016,744.5 671.241,641.498 "/>
<polygon style="fill:#4CC9F1;" points="601.18,641.498 551.446,641.498 471.22,744.5 520.955,744.5 "/>
<polygon style="fill:#4CC9F1;" points="401.159,744.5 450.893,744.5 531.118,641.498 481.384,641.498 "/>
<polygon style="fill:#4CC9F1;" points="1493.37,1424.102 1530.73,1358.501 1682.843,1358.501 1682.876,1358.501 1682.863,1358.479 
	1645.515,1292.901 1236.16,1292.901 1198.799,1358.501 1046.87,1358.501 1046.87,1358.501 1046.653,1358.501 1084.014,1424.102 "/>
<polygon style="fill:#4CC9F1;" points="204.802,1000 204.802,1119.5 388.862,1239.001 602.401,1239.001 574.601,1190.706 
	401.159,1190.706 246.717,1087.59 246.717,1028.226 "/>
</svg>
