<?xml version="1.0" encoding="utf-8"?>
<!-- Generator: Adobe Illustrator 27.5.0, SVG Export Plug-In . SVG Version: 6.00 Build 0)  -->
<svg version="1.1" id="Layer_1" xmlns="http://www.w3.org/2000/svg" xmlns:xlink="http://www.w3.org/1999/xlink" x="0px" y="0px"
	 viewBox="150 590 1700 860" preserveAspectRatio="none" style="enable-background:new 0 0 2000 2000;" xml:space="preserve">
<linearGradient id="SVGID_1_" gradientUnits="userSpaceOnUse" x1="252.0714" y1="969.8293" x2="1726.1366" y2="969.8293">
	<stop  offset="0" style="stop-color:#B6179F"/>
	<stop  offset="1" style="stop-color:#550CAD"/>
</linearGradient>
<polygon style="fill:url(#SVGID_1_);" points="1726.137,1191.349 1621.999,1302.108 1032.546,1302.108 939.611,1191.349 
	422.668,1191.349 252.071,1080.589 252.071,859.07 422.668,748.31 942.94,748.31 1032.546,637.551 1621.999,637.551 
	1726.137,748.31 "/>
<linearGradient id="SVGID_00000051350966189047454710000011671744581136680378_" gradientUnits="userSpaceOnUse" x1="888.6229" y1="685.2841" x2="1009.0762" y2="685.2841">
	<stop  offset="0" style="stop-color:#B6179F"/>
	<stop  offset="1" style="stop-color:#550CAD"/>
</linearGradient>
<polygon style="fill:url(#SVGID_00000051350966189047454710000011671744581136680378_);" points="962.98,637.551 1009.076,637.551 
	934.719,733.018 888.623,733.018 "/>
<linearGradient id="SVGID_00000083068972291381316710000000066105778327839898_" gradientUnits="userSpaceOnUse" x1="823.6862" y1="685.2841" x2="944.1394" y2="685.2841">
	<stop  offset="0" style="stop-color:#B6179F"/>
	<stop  offset="1" style="stop-color:#550CAD"/>
</linearGradient>
<polygon style="fill:url(#SVGID_00000083068972291381316710000000066105778327839898_);" points="898.043,637.551 944.139,637.551 
	869.783,733.018 823.686,733.018 "/>
<linearGradient id="SVGID_00000075141391003039800470000004419926706642947718_" gradientUnits="userSpaceOnUse" x1="758.7494" y1="685.2841" x2="879.2027" y2="685.2841">
	<stop  offset="0" style="stop-color:#B6179F"/>
	<stop  offset="1" style="stop-color:#550CAD"/>
</linearGradient>
<polygon style="fill:url(#SVGID_00000075141391003039800470000004419926706642947718_);" points="833.106,637.551 879.203,637.551 
	804.846,733.018 758.749,733.018 "/>
<linearGradient id="SVGID_00000065069129917208156560000017777007270848819629_" gradientUnits="userSpaceOnUse" x1="693.8127" y1="685.2841" x2="814.266" y2="685.2841">
	<stop  offset="0" style="stop-color:#B6179F"/>
	<stop  offset="1" style="stop-color:#550CAD"/>
</linearGradient>
<polygon style="fill:url(#SVGID_00000065069129917208156560000017777007270848819629_);" points="768.17,637.551 814.266,637.551 
	739.909,733.018 693.813,733.018 "/>
<linearGradient id="SVGID_00000152980353957469885420000009049254062040388230_" gradientUnits="userSpaceOnUse" x1="628.876" y1="685.2841" x2="749.3293" y2="685.2841">
	<stop  offset="0" style="stop-color:#B6179F"/>
	<stop  offset="1" style="stop-color:#550CAD"/>
</linearGradient>
<polygon style="fill:url(#SVGID_00000152980353957469885420000009049254062040388230_);" points="703.233,637.551 749.329,637.551 
	674.972,733.018 628.876,733.018 "/>
<linearGradient id="SVGID_00000047028527348011323240000007074054933412549021_" gradientUnits="userSpaceOnUse" x1="563.9393" y1="685.2841" x2="684.3926" y2="685.2841">
	<stop  offset="0" style="stop-color:#B6179F"/>
	<stop  offset="1" style="stop-color:#550CAD"/>
</linearGradient>
<polygon style="fill:url(#SVGID_00000047028527348011323240000007074054933412549021_);" points="638.296,637.551 684.393,637.551 
	610.036,733.018 563.939,733.018 "/>
<linearGradient id="SVGID_00000164494191412308496980000006612423273251650231_" gradientUnits="userSpaceOnUse" x1="499.0026" y1="685.2841" x2="619.4558" y2="685.2841">
	<stop  offset="0" style="stop-color:#B6179F"/>
	<stop  offset="1" style="stop-color:#550CAD"/>
</linearGradient>
<polygon style="fill:url(#SVGID_00000164494191412308496980000006612423273251650231_);" points="573.359,637.551 619.456,637.551 
	545.099,733.018 499.003,733.018 "/>
<linearGradient id="SVGID_00000165948424751976265490000008338926412573768090_" gradientUnits="userSpaceOnUse" x1="434.0658" y1="685.2841" x2="554.5191" y2="685.2841">
	<stop  offset="0" style="stop-color:#B6179F"/>
	<stop  offset="1" style="stop-color:#550CAD"/>
</linearGradient>
<polygon style="fill:url(#SVGID_00000165948424751976265490000008338926412573768090_);" points="508.423,637.551 554.519,637.551 
	480.162,733.018 434.066,733.018 "/>
<linearGradient id="SVGID_00000122705888749141096860000009109330997395849365_" gradientUnits="userSpaceOnUse" x1="-229.5157" y1="-660.9991" x2="-229.5157" y2="-1097.504" gradientTransform="matrix(0 1 -1 0 713.7408 1199.345)">
	<stop  offset="0" style="stop-color:#B6179F"/>
	<stop  offset="1" style="stop-color:#550CAD"/>
</linearGradient>
<polygon style="fill:url(#SVGID_00000122705888749141096860000009109330997395849365_);" points="1795.198,1154.393 
	1736.044,1188.082 1736.044,751.577 1795.198,785.266 "/>
<linearGradient id="SVGID_00000164497120298764742450000000389668261006576258_" gradientUnits="userSpaceOnUse" x1="1032.3448" y1="1338.3455" x2="1481.0135" y2="1338.3455">
	<stop  offset="0" style="stop-color:#B6179F"/>
	<stop  offset="1" style="stop-color:#550CAD"/>
</linearGradient>
<polygon style="fill:url(#SVGID_00000164497120298764742450000000389668261006576258_);" points="1066.973,1368.747 
	1032.345,1307.944 1481.014,1307.944 1446.386,1368.747 "/>
<linearGradient id="SVGID_00000116946209977586211340000016087600542229050762_" gradientUnits="userSpaceOnUse" x1="204.8019" y1="1112.368" x2="573.3181" y2="1112.368">
	<stop  offset="0" style="stop-color:#B6179F"/>
	<stop  offset="1" style="stop-color:#550CAD"/>
</linearGradient>
<polygon style="fill:url(#SVGID_00000116946209977586211340000016087600542229050762_);" points="204.802,975.923 243.651,1002.084 
	243.651,1085.482 423.565,1204.051 547.552,1204.051 573.318,1248.813 375.399,1248.813 204.802,1138.054 "/>
</svg>
